<?xml version="1.0" encoding="iso-8859-1"?>
<!-- Generator: Adobe Illustrator 19.0.0, SVG Export Plug-In . SVG Version: 6.00 Build 0)  -->
<svg version="1.1" id="Layer_1" xmlns="http://www.w3.org/2000/svg" xmlns:xlink="http://www.w3.org/1999/xlink" x="0px" y="0px"
	 viewBox="0 0 512 512" style="enable-background:new 0 0 512 512;" xml:space="preserve">
<g>
	<g>
		<g>
			<path d="M355.307,156.321c-1.664-1.673-3.849-2.492-6.042-2.492c-2.185,0-4.369,0.819-6.033,2.492l-36.198,36.198
				c-1.613,1.604-2.5,3.755-2.5,6.033c0,2.278,0.887,4.42,2.5,6.033l60.339,60.339c3.226,3.217,8.841,3.234,12.058,0l36.215-36.198
				c3.328-3.337,3.328-8.738,0-12.075L355.307,156.321z M385.472,234.76c-1.664,1.664-3.849,2.5-6.033,2.5s-4.369-0.836-6.033-2.5
				l-36.198-36.207c-3.336-3.336-3.336-8.738,0-12.066c3.328-3.337,8.73-3.337,12.066,0l36.198,36.207
				C388.809,226.03,388.809,231.423,385.472,234.76z"/>
			<path d="M451.846,180.454L337.21,65.809c-11.059-11.051-25.412-16.794-39.927-17.348C284.388,20.838,259.053,0,221.882,0
				c-34.637,0-59.034,18.074-72.636,42.88c-1.391-0.06-2.756-0.213-4.164-0.213c-56.465,0-102.4,45.935-102.4,102.4
				c0,37.803,20.642,70.81,51.2,88.55v82.116c0,2.27,0.896,4.437,2.5,6.033l11.034,11.025l-11.042,11.042
				c-3.328,3.337-3.328,8.738,0.009,12.066l11.034,11.034l-11.034,11.034c-3.337,3.336-3.337,8.738,0,12.066l11.034,11.034
				L96.382,412.1c-1.604,1.604-2.5,3.772-2.5,6.033c0,2.27,0.896,4.437,2.5,6.033l11.034,11.025l-11.042,11.042
				c-3.328,3.336-3.328,8.738,0.009,12.066l11.034,11.034l-11.034,11.034c-3.337,3.337-3.337,8.738,0,12.066l17.067,17.067
				c1.596,1.604,3.772,2.5,6.033,2.5h25.6V247.467c5.828,0,11.503-0.597,17.067-1.536v260.122l32.7-49.05
				c0.93-1.399,1.434-3.055,1.434-4.736v-218.65c13.935-8.09,25.796-19.337,34.577-32.802l100.318,100.318
				c11.639,11.648,26.94,17.468,42.231,17.468c15.3,0,30.601-5.82,42.24-17.468l36.198-36.198
				C475.142,241.647,475.142,203.742,451.846,180.454z M153.18,96.009c5.316,2.893,8.969,8.465,8.969,14.925
				c0,9.412-7.654,17.067-17.067,17.067c-9.412,0-17.067-7.654-17.067-17.067c0-6.46,3.652-12.032,8.969-14.925
				c0.964,3.652,4.147,6.391,8.098,6.391S152.216,99.661,153.18,96.009z M229.877,154.428c-0.094,0.819-0.265,1.613-0.375,2.432
				c-0.324,2.321-0.7,4.634-1.22,6.921c-0.171,0.759-0.393,1.502-0.58,2.253c-0.623,2.406-1.314,4.796-2.15,7.159
				c-0.179,0.521-0.375,1.041-0.572,1.562c-0.99,2.645-2.108,5.248-3.371,7.817c-8.252,16.777-21.82,30.438-38.537,38.793
				c-2.108,1.058-4.233,2.039-6.4,2.901c-0.384,0.162-0.794,0.29-1.186,0.444c-2.133,0.811-4.284,1.57-6.468,2.219
				c-0.461,0.128-0.939,0.23-1.408,0.358c-2.167,0.597-4.352,1.143-6.571,1.57c-0.341,0.06-0.7,0.094-1.041,0.154
				c-2.364,0.418-4.745,0.776-7.151,0.99h-0.008c-3.695,0.341-7.407,0.384-11.11,0.23c-0.529-0.017-1.058-0.051-1.579-0.077
				c-7.603-0.444-15.172-1.869-22.485-4.352c-0.162-0.06-0.324-0.119-0.495-0.179c-3.601-1.254-7.142-2.748-10.581-4.497
				c-27.75-14.106-46.839-42.863-46.839-76.058c0-45.969,36.574-83.473,82.15-85.171c-1.877,5.76-3.234,11.708-4.122,17.732
				c-15.317,3.362-26.829,16.998-26.829,33.306c0,18.825,15.309,34.133,34.133,34.133c18.816,0,34.133-15.309,34.133-34.133
				c0-15.386-10.3-28.271-24.311-32.521c0.964-5.931,2.5-11.767,4.608-17.357c26.957,4.617,49.587,21.871,61.602,45.474
				c1.323,2.603,2.483,5.248,3.524,7.927c0.282,0.717,0.538,1.434,0.794,2.159c0.785,2.185,1.451,4.403,2.048,6.639
				c0.256,0.973,0.529,1.937,0.759,2.918c0.486,2.142,0.845,4.309,1.169,6.494c0.145,0.973,0.341,1.929,0.444,2.918
				c0.35,3.132,0.563,6.289,0.563,9.481C230.415,148.215,230.219,151.339,229.877,154.428z M230.244,88.303
				c-14.37-21.478-36.642-37.188-62.618-43.051c11.093-16.521,28.911-28.186,54.255-28.186c27.938,0,46.746,14.165,57.438,33.399
				c-9.737,2.628-18.953,7.714-26.59,15.343L230.244,88.303z M264.548,110.933c0-15.386,10.291-28.271,24.311-32.521
				c0.828,5.137,1.289,10.317,1.289,15.454c0,0.759,0.247,1.442,0.435,2.142c-5.316,2.893-8.969,8.465-8.969,14.925
				c0,9.412,7.654,17.067,17.067,17.067c9.412,0,17.067-7.654,17.067-17.067c0-6.46-3.652-12.032-8.969-14.925
				c0.188-0.7,0.435-1.382,0.435-2.142c0-5.427-0.435-10.863-1.229-16.239c15.317,3.362,26.829,16.998,26.829,33.306
				c0,18.825-15.317,34.133-34.133,34.133C279.857,145.067,264.548,129.758,264.548,110.933z M427.714,240.794l-36.207,36.198
				c-4.83,4.838-11.255,7.501-18.099,7.501c-6.835,0-13.261-2.662-18.099-7.501l-60.348-60.339
				c-4.83-4.838-7.492-11.255-7.492-18.099c0-6.835,2.662-13.269,7.492-18.099l36.207-36.198c9.975-9.993,26.214-9.984,36.207,0
				l60.339,60.331C437.698,214.571,437.698,230.81,427.714,240.794z"/>
		</g>
	</g>
</g>
<g>
</g>
<g>
</g>
<g>
</g>
<g>
</g>
<g>
</g>
<g>
</g>
<g>
</g>
<g>
</g>
<g>
</g>
<g>
</g>
<g>
</g>
<g>
</g>
<g>
</g>
<g>
</g>
<g>
</g>
</svg>
